TITLE ""
FILE "Step3_Track09.mp3" MP3
  TRACK 01 AUDIO
    TITLE "Step3_Track09_01"
    INDEX 01 00:00:00
  TRACK 02 AUDIO
    TITLE "Step3_Track09_02"
    INDEX 01 00:00:22
  TRACK 03 AUDIO
    TITLE "Step3_Track09_03"
    INDEX 01 00:01:53
  TRACK 04 AUDIO
    TITLE "Step3_Track09_04"
    INDEX 01 00:02:27
  TRACK 05 AUDIO
    TITLE "Step3_Track09_05"
    INDEX 01 00:03:18
  TRACK 06 AUDIO
    TITLE "Step3_Track09_06"
    INDEX 01 00:03:36
  TRACK 07 AUDIO
    TITLE "Step3_Track09_07"
    INDEX 01 00:06:03
  TRACK 08 AUDIO
    TITLE "Step3_Track09_08"
    INDEX 01 00:06:31
  TRACK 09 AUDIO
    TITLE "Step3_Track09_09"
    INDEX 01 00:07:32
  TRACK 10 AUDIO
    TITLE "Step3_Track09_10"
    INDEX 01 00:07:34
  TRACK 11 AUDIO
    TITLE "Step3_Track09_11"
    INDEX 01 00:10:40
  TRACK 12 AUDIO
    TITLE "Step3_Track09_12"
    INDEX 01 00:10:64
  TRACK 13 AUDIO
    TITLE "Step3_Track09_13"
    INDEX 01 00:11:67
  TRACK 14 AUDIO
    TITLE "Step3_Track09_14"
    INDEX 01 00:11:69
  TRACK 15 AUDIO
    TITLE "Step3_Track09_15"
    INDEX 01 00:14:75
  TRACK 16 AUDIO
    TITLE "Step3_Track09_16"
    INDEX 01 00:15:37
  TRACK 17 AUDIO
    TITLE "Step3_Track09_17"
    INDEX 01 00:16:37
  TRACK 18 AUDIO
    TITLE "Step3_Track09_18"
    INDEX 01 00:16:39
  TRACK 19 AUDIO
    TITLE "Step3_Track09_19"
    INDEX 01 00:19:02
  TRACK 20 AUDIO
    TITLE "Step3_Track09_20"
    INDEX 01 00:19:35
  TRACK 21 AUDIO
    TITLE "Step3_Track09_21"
    INDEX 01 00:20:40
  TRACK 22 AUDIO
    TITLE "Step3_Track09_22"
    INDEX 01 00:20:44
  TRACK 23 AUDIO
    TITLE "Step3_Track09_23"
    INDEX 01 00:23:11
  TRACK 24 AUDIO
    TITLE "Step3_Track09_24"
    INDEX 01 00:23:52
  TRACK 25 AUDIO
    TITLE "Step3_Track09_25"
    INDEX 01 00:24:56
  TRACK 26 AUDIO
    TITLE "Step3_Track09_26"
    INDEX 01 00:24:58
  TRACK 27 AUDIO
    TITLE "Step3_Track09_27"
    INDEX 01 00:28:46
  TRACK 28 AUDIO
    TITLE "Step3_Track09_28"
    INDEX 01 00:28:67
  TRACK 29 AUDIO
    TITLE "Step3_Track09_29"
    INDEX 01 00:29:71
  TRACK 30 AUDIO
    TITLE "Step3_Track09_30"
    INDEX 01 00:29:75
  TRACK 31 AUDIO
    TITLE "Step3_Track09_31"
    INDEX 01 00:32:63
  TRACK 32 AUDIO
    TITLE "Step3_Track09_32"
    INDEX 01 00:33:16
  TRACK 33 AUDIO
    TITLE "Step3_Track09_33"
    INDEX 01 00:33:70
  TRACK 34 AUDIO
    TITLE "Step3_Track09_34"
    INDEX 01 00:34:17
  TRACK 35 AUDIO
    TITLE "Step3_Track09_35"
    INDEX 01 00:37:17
  TRACK 36 AUDIO
    TITLE "Step3_Track09_36"
    INDEX 01 00:37:43
  TRACK 37 AUDIO
    TITLE "Step3_Track09_37"
    INDEX 01 00:38:40
  TRACK 38 AUDIO
    TITLE "Step3_Track09_38"
    INDEX 01 00:38:64
  TRACK 39 AUDIO
    TITLE "Step3_Track09_39"
    INDEX 01 00:42:24
  TRACK 40 AUDIO
    TITLE "Step3_Track09_40"
    INDEX 01 00:42:60
  TRACK 41 AUDIO
    TITLE "Step3_Track09_41"
    INDEX 01 00:43:57
  TRACK 42 AUDIO
    TITLE "Step3_Track09_42"
    INDEX 01 00:43:61
  TRACK 43 AUDIO
    TITLE "Step3_Track09_43"
    INDEX 01 00:46:28
